<svg width="91" height="21" viewBox="0 0 91 21" fill="none" xmlns="http://www.w3.org/2000/svg">
<path d="M16.1393 3.56L14.4593 4.28C15.2753 5.432 16.0193 6.776 16.6673 8.144L18.3953 7.376C17.8433 6.272 16.7633 4.496 16.1393 3.56ZM19.2833 2.312L17.6033 3.08C18.4433 4.208 19.2353 5.504 19.9073 6.872L21.6113 6.056C21.0593 4.952 19.9313 3.2 19.2833 2.312ZM0.467281 13.472L2.69928 15.728C3.08328 15.176 3.63528 14.408 4.13928 13.712C5.17128 12.392 7.06728 9.872 8.14728 8.552C8.89128 7.616 9.27528 7.616 10.1873 8.384C11.1713 9.224 13.1873 11.408 14.7713 13.208C16.2593 14.936 18.4433 17.48 20.0513 19.544L22.0433 17.384C20.3153 15.344 17.8193 12.68 16.2113 10.952C14.6993 9.32 12.8033 7.28 11.2673 6.032C9.44328 4.496 8.31528 4.664 6.97128 6.248C5.38728 8.12 3.39528 10.64 2.29128 11.768C1.59528 12.44 1.11528 12.92 0.467281 13.472ZM26.9633 20.792C29.0033 19.064 30.5153 16.712 31.2353 14.072C31.8833 11.672 31.9793 6.56 31.9793 3.824C31.9793 2.984 32.0753 2.096 32.0993 1.904H29.3153C29.4593 2.456 29.5073 3.032 29.5073 3.848C29.5073 6.608 29.5073 11.288 28.8113 13.424C28.1153 15.632 26.7473 17.792 24.6833 19.256L26.9633 20.792ZM37.3073 20.792C37.5713 20.6 37.8113 20.384 38.2193 20.192C40.9793 18.8 44.3393 16.28 46.3793 13.568L44.9393 11.504C43.2113 14.048 40.4993 16.088 38.4113 17.024V3.752C38.4113 2.768 38.5073 1.976 38.5313 1.832H35.7473C35.7473 1.976 35.8913 2.768 35.8913 3.752V17.96C35.8913 18.512 35.8193 19.064 35.7233 19.472L37.3073 20.792ZM65.6687 5.192C65.1887 5.264 64.6367 5.336 64.0127 5.336H58.8287C58.8767 4.592 58.9247 3.8 58.9487 2.984C58.9727 2.408 59.0207 1.52 59.0687 0.967999H56.2607C56.3567 1.52 56.4287 2.504 56.4287 3.056C56.4287 3.848 56.4047 4.616 56.3567 5.336H52.4927C51.5567 5.336 50.4767 5.264 49.5647 5.192V7.688C50.4767 7.616 51.6047 7.592 52.4927 7.592H56.1407C55.5407 11.936 54.0767 14.84 51.7487 17.024C50.9087 17.84 49.8527 18.584 48.9887 19.04L51.1967 20.84C55.3247 17.936 57.7007 14.264 58.5887 7.592H64.7327C64.7327 10.184 64.4207 15.608 63.6047 17.288C63.3407 17.888 62.9567 18.104 62.2367 18.104C61.2527 18.104 59.9807 17.984 58.7567 17.816L59.0447 20.336C60.2447 20.408 61.6607 20.504 62.9567 20.504C64.4207 20.504 65.2367 19.976 65.7407 18.872C66.7967 16.52 67.1087 9.656 67.1807 7.232C67.2047 6.92 67.2527 6.416 67.3247 6.008L65.6687 5.192ZM77.5007 1.568L76.6127 3.8C79.9727 4.232 86.4767 5.672 89.3327 6.728L90.3167 4.376C87.2927 3.32 80.6447 1.952 77.5007 1.568ZM76.4207 7.952L75.5327 10.232C79.0127 10.76 84.9887 12.128 87.7727 13.184L88.7087 10.856C85.7087 9.776 79.7567 8.504 76.4207 7.952ZM75.1487 14.888L74.1887 17.24C78.0527 17.816 85.3967 19.448 88.5887 20.816L89.6447 18.464C86.3567 17.192 79.2047 15.512 75.1487 14.888Z" fill="#1C2426"/>
</svg>
